<?xml version="1.0" encoding="UTF-8"?>
<svg width="128" height="128" viewBox="0 0 128 128" xmlns="http://www.w3.org/2000/svg">
  <circle cx="64" cy="64" r="60" fill="#61DAFB"/>
  <path d="M64 20C40.6863 20 22 38.6863 22 62C22 85.3137 40.6863 104 64 104C87.3137 104 106 85.3137 106 62C106 38.6863 87.3137 20 64 20ZM64 92C45.1634 92 30 76.8366 30 58C30 39.1634 45.1634 24 64 24C82.8366 24 98 39.1634 98 58C98 76.8366 82.8366 92 64 92Z" fill="white"/>
  <path d="M64 32C48.536 32 36 44.536 36 60C36 75.464 48.536 88 64 88C79.464 88 92 75.464 92 60C92 44.536 79.464 32 64 32ZM64 80C52.9543 80 44 70.9543 44 60C44 49.0457 52.9543 40 64 40C75.0457 40 84 49.0457 84 60C84 70.9543 75.0457 80 64 80Z" fill="white"/>
  <circle cx="64" cy="60" r="8" fill="white"/>
</svg> 